<?xml version="1.0" encoding="iso-8859-1"?>
<!-- Generator: Adobe Illustrator 22.1.0, SVG Export Plug-In . SVG Version: 6.00 Build 0)  -->
<svg xmlns="http://www.w3.org/2000/svg" xmlns:xlink="http://www.w3.org/1999/xlink" version="1.1" id="Layer_1_1_" x="0px" y="0px" viewBox="0 0 64 64" style="enable-background:new 0 0 64 64;" xml:space="preserve" width="512" height="512">
<linearGradient id="SVGID_1_" gradientUnits="userSpaceOnUse" x1="32" y1="63" x2="32" y2="1">
	<stop offset="0" style="stop-color:#9F2FFF"/>
	<stop offset="1" style="stop-color:#0BB1D3"/>
</linearGradient>
<path style="fill:url(#SVGID_1_);" d="M23,7h-8V5h8V7z M27,5h-2v2h2V5z M13,5h-2v2h2V5z M16,59h6v-2h-6V59z M63,20v24  c0,1.654-1.346,3-3,3H48.236L39,51.618V47h-2v11c0,2.757-2.243,5-5,5H6c-2.757,0-5-2.243-5-5V6c0-2.757,2.243-5,5-5h26  c2.757,0,5,2.243,5,5v13h-9c-0.551,0-1,0.449-1,1v24c0,0.551,0.449,1,1,1h13v3.382L47.764,45H60c0.551,0,1-0.449,1-1V20  c0-0.551-0.449-1-1-1H39v-2h21C61.654,17,63,18.346,63,20z M28,17h3v-2H7v34h24v-2h-3c-1.654,0-3-1.346-3-3V20  C25,18.346,26.346,17,28,17z M35,17v-6H3v42h32v-6h-2v4H5V13h28v4H35z M3,6v3h32V6c0-1.654-1.346-3-3-3H6C4.346,3,3,4.346,3,6z   M35,58v-3H3v3c0,1.654,1.346,3,3,3h26C33.654,61,35,59.654,35,58z M43.399,21.03l0.012-0.016l0.497-0.01l0,0.001  C43.939,21.004,43.969,21,44,21c6.065,0,11,4.935,11,11s-4.935,11-11,11s-11-4.935-11-11C33,26.138,37.614,21.346,43.399,21.03z   M35,32c0,0.688,0.085,1.356,0.232,2h0.818C37.676,34,39,32.676,39,31.049c0-0.512-0.134-1.019-0.389-1.465l-1.749-3.044  C35.699,28.057,35,29.946,35,32z M39.392,39.717C40.35,36.953,42.984,35,46,35c2.004,0,3.896,0.887,5.212,2.361  c0.785-1.053,1.351-2.278,1.615-3.614C52.292,33.908,51.737,34,51.171,34h-2.343C46.717,34,45,32.283,45,30.171  c0-0.488-0.19-0.947-0.536-1.293l-1.343-1.343C42.398,26.812,42,25.851,42,24.829c0-0.566,0.092-1.121,0.253-1.655  c-1.474,0.291-2.819,0.942-3.94,1.859l2.035,3.561C40.774,29.34,41,30.19,41,31.049C41,33.779,38.779,36,36.049,36h-0.1  C36.72,37.544,37.919,38.833,39.392,39.717z M44,41c2.232,0,4.273-0.822,5.847-2.172C48.905,37.688,47.494,37,46,37  c-2.221,0-4.145,1.486-4.771,3.559C42.103,40.842,43.033,41,44,41z M44.471,23.024C44.165,23.583,44,24.196,44,24.829  c0,0.488,0.19,0.947,0.536,1.293l1.343,1.343C46.602,28.188,47,29.149,47,30.171C47,31.18,47.82,32,48.829,32h2.343  c0.632,0,1.246-0.165,1.805-0.471C52.737,26.943,49.057,23.263,44.471,23.024z M9,19h14v-2H9V19z M9,23h14v-2H9V23z M9,27h14v-2H9  V27z M9,31h14v-2H9V31z"/>
</svg>
