<svg height="496pt" viewBox="0 0 496 496" width="496pt" xmlns="http://www.w3.org/2000/svg" xmlns:xlink="http://www.w3.org/1999/xlink"><linearGradient id="a" gradientUnits="userSpaceOnUse" x1="248" x2="248" y1="496" y2="0"><stop offset="0" stop-color="#9f2fff"/><stop offset="1" stop-color="#0bb1d3"/></linearGradient><path d="m0 432h35.230469c10.203125 36.839844 43.9375 64 83.976562 64 15.160157 0 30.128907-3.976562 43.273438-11.496094l85.519531-48.863281 85.511719 48.863281c13.152343 7.519532 28.121093 11.496094 43.28125 11.496094 40.039062 0 73.773437-27.160156 83.976562-64h35.230469v-432h-496zm448-23.207031c0 39.261719-31.945312 71.207031-71.207031 71.207031-12.378907 0-24.59375-3.238281-35.335938-9.382812l-77.328125-44.183594 16.117188-9.210938 69.152344 39.503906c8.3125 4.761719 17.785156 7.273438 27.394531 7.273438 30.4375 0 55.207031-24.769531 55.207031-55.207031v-1.578125c0-30.445313-24.769531-55.214844-55.207031-55.214844-9.601563 0-19.082031 2.511719-27.402344 7.273438l-194.847656 111.34375c-10.734375 6.144531-22.957031 9.382812-35.335938 9.382812-39.261719 0-71.207031-31.945312-71.207031-71.207031v-1.578125c0-39.269532 31.945312-71.214844 71.207031-71.214844 12.378907 0 24.59375 3.238281 35.335938 9.382812l77.328125 44.183594-16.117188 9.21875-69.152344-39.511718c-8.3125-4.761719-17.785156-7.273438-27.394531-7.273438-30.4375 0-55.207031 24.769531-55.207031 55.207031v1.578125c0 30.445313 24.769531 55.214844 55.207031 55.214844 9.601563 0 19.082031-2.511719 27.402344-7.273438l194.839844-111.34375c10.742187-6.144531 22.964843-9.382812 35.34375-9.382812 39.261719 0 71.207031 31.945312 71.207031 71.207031zm-151.632812-.792969 60.960937-34.832031c5.902344-3.375 12.640625-5.167969 19.464844-5.167969 21.613281 0 39.207031 17.59375 39.207031 39.207031v1.578125c0 21.621094-17.59375 39.214844-39.207031 39.214844-6.824219 0-13.554688-1.792969-19.464844-5.167969zm-96.734376 0-60.960937 34.832031c-5.902344 3.375-12.640625 5.167969-19.464844 5.167969-21.613281 0-39.207031-17.59375-39.207031-39.207031v-1.578125c0-21.621094 17.59375-39.214844 39.207031-39.214844 6.824219 0 13.554688 1.792969 19.464844 5.167969zm-183.632812-392h464v48h-464zm0 64h464v336h-16.367188c.199219-2.382812.367188-4.777344.367188-7.207031v-1.578125c0-48.085938-39.128906-87.214844-87.207031-87.214844-15.160157 0-30.128907 3.976562-43.273438 11.496094l-85.519531 48.863281-85.511719-48.863281c-13.152343-7.519532-28.121093-11.496094-43.28125-11.496094-48.078125 0-87.207031 39.128906-87.207031 87.207031v1.578125c0 2.4375.167969 4.832032.367188 7.214844h-16.367188zm224 16h-208v208h208zm-16 192h-176v-176h176zm-16-144h-144v-16h144zm-32 32h-112v-16h112zm16-16h16v16h-16zm-96 32h112v16h-112zm-16 16h-16v-16h16zm128 32h-144v-16h144zm-32 32h-112v-16h112zm288-176h-208v208h208zm-16 192h-176v-176h176zm-16-144h-144v-16h144zm-128 32h-16v-16h16zm16-16h112v16h-112zm112 48h-144v-16h144zm0 32h-144v-16h144zm-32 32h-112v-16h112zm-368-240h16v16h-16zm32 0h16v16h-16zm32 0h16v16h-16zm320 224h16v16h-16zm-224 0h16v16h-16zm0 0" fill="url(#a)"/></svg>