<svg id="Layer_3" enable-background="new 0 0 64 64" height="512" viewBox="0 0 64 64" width="512" xmlns="http://www.w3.org/2000/svg" xmlns:xlink="http://www.w3.org/1999/xlink"><linearGradient id="SVGID_1_" gradientUnits="userSpaceOnUse" x1="32" x2="32" y1="63" y2="1"><stop offset="0" stop-color="#9f2fff"/><stop offset="1" stop-color="#0bb1d3"/></linearGradient><path d="m23 43h-2v-2h2zm2 15h2v-2h-2zm-4 1h2v-2h-2zm-14-9h2v-2h-2zm4 1h2v-2h-2zm-2-19c0-2.916 7.182-3 8-3s8 .084 8 3-7.182 3-8 3-8-.084-8-3zm2.171 0c.674.416 2.692 1 5.829 1s5.155-.584 5.829-1c-.674-.416-2.692-1-5.829-1s-5.155.584-5.829 1zm45.243-31 6.586 6.586v27.414h-6v14h-24v8c0 3.939-8.049 6-16 6s-16-2.061-16-6v-25c0-3.99 6.879-7 16-7 3.713 0 7.196.521 10 1.474v-11.474h6v-14zm-1.414 8v-2h-16v4h18v-2zm4.586-2-2.586-2.586v2.586zm-56.586 25c0 2.365 5.75 5 14 5 3.745 0 7.335-.584 10-1.604v-6.792c-2.665-1.02-6.255-1.604-10-1.604-8.25 0-14 2.635-14 5zm0 9c0 1.631 5.454 4 14 4 3.737 0 7.323-.483 10-1.328v-1.672h-2v-2h2v-2.474c-2.804.953-6.287 1.474-10 1.474-6.179 0-11.321-1.384-14-3.515zm28 16v-4.944c-2.879 1.94-8.459 2.944-14 2.944s-11.121-1.004-14-2.944v4.944c0 1.631 5.454 4 14 4s14-2.369 14-4zm0-8h-4v-3.234c-2.798.798-6.284 1.234-10 1.234-5.541 0-11.121-1.004-14-2.944v4.944c0 1.631 5.454 4 14 4s14-2.369 14-4zm24-32h-26v30h26zm6 16v-24h-2v4h-22v-8h18v-2h-20v12h22v18zm-28-14h-2v2h2zm20 0h-18v2h18zm0 4h-22v2h22zm0 4h-22v2h22zm-8 18h-14v-14h14zm-2-12h-10v10h10zm4 0h6v-2h-6zm0 4h6v-2h-6zm0 4h6v-2h-6zm0 4h6v-2h-6z" fill="url(#SVGID_1_)"/></svg>