<?xml version="1.0" encoding="iso-8859-1"?>
<!-- Generator: Adobe Illustrator 22.1.0, SVG Export Plug-In . SVG Version: 6.00 Build 0)  -->
<svg xmlns="http://www.w3.org/2000/svg" xmlns:xlink="http://www.w3.org/1999/xlink" version="1.1" id="Layer_1_1_" x="0px" y="0px" viewBox="0 0 64 64" style="enable-background:new 0 0 64 64;" xml:space="preserve" width="512" height="512">
<linearGradient id="SVGID_1_" gradientUnits="userSpaceOnUse" x1="31.9974" y1="63" x2="31.9974" y2="1">
	<stop offset="0" style="stop-color:#9F2FFF"/>
	<stop offset="1" style="stop-color:#0BB1D3"/>
</linearGradient>
<path style="fill:url(#SVGID_1_);" d="M23,7h-8V5h8V7z M27,5h-2v2h2V5z M13,5h-2v2h2V5z M16,59h6v-2h-6V59z M1,58V6  c0-2.757,2.243-5,5-5h26c2.757,0,5,2.243,5,5v10.268c0.685,0.238,1.312,0.629,1.839,1.157l4.09,4.09C43.62,22.206,44,23.124,44,24.1  c0,1.006-0.421,1.979-1.156,2.667l-2.042,1.915C40.292,29.159,40,29.834,40,30.534c0,0.678,0.264,1.316,0.744,1.796l1.927,1.927  c0.974,0.975,2.708,0.946,3.649-0.059l1.915-2.042C48.922,31.421,49.894,31,50.9,31c0.976,0,1.894,0.38,2.584,1.071l4.09,4.09  C58.494,37.08,59,38.301,59,39.601c0,1.136-0.4,2.242-1.127,3.114l-2.109,2.531C54.305,46.996,52.162,48,49.883,48  c-1.417,0-2.804-0.393-4.011-1.136l-1.097-0.674c-2.231-1.374-4.368-2.937-6.349-4.646l1.306-1.515  c1.901,1.639,3.951,3.139,6.092,4.457l1.096,0.674C47.812,45.71,48.836,46,49.883,46c1.683,0,3.266-0.741,4.344-2.034l0.602-0.723  l-7.387-7.387C46.62,36.576,45.567,37,44.466,37c-1.213,0-2.353-0.472-3.21-1.33l-1.927-1.927c-0.857-0.857-1.33-1.997-1.33-3.21  c0-1.101,0.424-2.153,1.144-2.976l-7.387-7.387l-0.723,0.602C29.741,21.851,29,23.434,29,25.117c0,1.084,0.266,2.069,0.77,2.934  c1.934,3.315,4.271,6.39,6.947,9.14L37,37.481V58c0,2.757-2.243,5-5,5H6C3.243,63,1,60.757,1,58z M49.693,33.523l-0.85,0.906  l7.271,7.271l0.222-0.266C56.764,40.921,57,40.27,57,39.601c0-0.765-0.298-1.484-0.839-2.025l-4.09-4.09  C51.435,32.85,50.306,32.868,49.693,33.523z M35,58v-3H3v3c0,1.654,1.346,3,3,3h26C33.654,61,35,59.654,35,58z M35,38.292  c-0.69-0.721-1.355-1.464-2-2.226V51H5V13h28v3.642c0.613-0.348,1.294-0.567,2-0.625V11H3v42h32V38.292z M31,18.198V15H7v34h24  V33.527c-1.063-1.437-2.057-2.925-2.958-4.469C27.36,27.888,27,26.554,27,25.201c0-2.363,1.004-4.506,2.754-5.964L31,18.198z   M33.565,18.664l-0.266,0.222l7.271,7.271l0.906-0.85C41.809,24.996,42,24.555,42,24.1c0-0.442-0.172-0.857-0.485-1.17l-4.09-4.09  C36.411,17.825,34.667,17.747,33.565,18.664z M3,6v3h32V6c0-1.654-1.346-3-3-3H6C4.346,3,3,4.346,3,6z M58.364,17.636  c3.509,3.509,3.509,9.219,0,12.729l1.414,1.414c4.289-4.289,4.289-11.268,0-15.557c-4.289-4.289-11.268-4.289-15.557,0l1.414,1.414  C49.145,14.127,54.854,14.127,58.364,17.636z M56.95,28.95c2.729-2.729,2.729-7.17,0-9.899c-2.729-2.729-7.17-2.729-9.899,0  l1.414,1.414c1.949-1.949,5.122-1.949,7.071,0c1.949,1.95,1.949,5.122,0,7.071L56.95,28.95z M25.39,34.214  C27.516,34.821,29,36.79,29,39v3H9v-3c0-2.21,1.484-4.179,3.61-4.786L16,33.246v-0.266c-1.246-0.939-2-2.416-2-3.979v-2  c0-1.397,0.591-2.741,1.622-3.686c1.03-0.945,2.421-1.417,3.822-1.294C21.999,22.241,24,24.52,24,27.208V29  c0,1.563-0.754,3.041-2,3.979v0.266L25.39,34.214z M24.84,36.137L20,34.754V31.87l0.497-0.289C21.438,31.033,22,30.068,22,29v-1.792  c0-1.659-1.199-3.062-2.729-3.196c-0.86-0.077-1.671,0.202-2.298,0.776C16.355,25.355,16,26.162,16,27v2  c0,1.068,0.562,2.033,1.503,2.581L18,31.87v2.884l-4.84,1.383C11.888,36.5,11,37.678,11,39v1h16v-1  C27,37.678,26.112,36.5,24.84,36.137z"/>
</svg>
