<svg id="Layer_35" enable-background="new 0 0 64 64" height="512" viewBox="0 0 64 64" width="512" xmlns="http://www.w3.org/2000/svg" xmlns:xlink="http://www.w3.org/1999/xlink"><linearGradient id="SVGID_1_" gradientUnits="userSpaceOnUse" x1="32" x2="32" y1="63" y2="1"><stop offset="0" stop-color="#9f2fff"/><stop offset="1" stop-color="#0bb1d3"/></linearGradient><path d="m15.46 2.976c-.692-.629-1.588-.976-2.524-.976h-.185c-2.068 0-3.751 1.683-3.751 3.751 0 1.082.467 2.111 1.281 2.823l13.694 11.982c.651.571 1.025 1.394 1.025 2.259v4.185h-8.837l-5.061 28.344c-.068.377-.102.762-.102 1.144 0 3.591 2.921 6.512 6.512 6.512h28.977c3.59 0 6.511-2.921 6.511-6.512 0-.382-.034-.768-.102-1.145l-5.061-28.343h-8.837v-4.185c0-.865.374-1.688 1.025-2.258l13.694-11.982c.814-.712 1.281-1.742 1.281-2.824 0-2.068-1.683-3.751-3.751-3.751h-.185c-.936 0-1.832.347-2.524.976l-8.395 7.632c-.71.645-1.539 1.118-2.433 1.425.808-1.142 1.288-2.531 1.288-4.033 0-3.86-3.14-7-7-7s-7 3.14-7 7c0 1.502.48 2.891 1.288 4.033-.894-.307-1.723-.78-2.433-1.425zm9.54 26.024v4h-7.877l.714-4zm26 27.488c0 2.488-2.024 4.512-4.512 4.512h-28.976c-2.488 0-4.512-2.024-4.512-4.512 0-.265.023-.532.07-.793l3.696-20.695h30.468l3.696 20.695c.047.262.07.529.07.793zm-4.837-27.488.714 4h-7.877v-4zm-4.672-16.913 8.395-7.632c.322-.293.741-.455 1.178-.455h.185c.965 0 1.751.786 1.751 1.751 0 .505-.218.986-.598 1.318l-13.694 11.983c-1.085.95-1.708 2.322-1.708 3.763v10.185h-10v-10.185c0-1.441-.623-2.813-1.708-3.763l-13.694-11.982c-.38-.333-.598-.813-.598-1.319 0-.965.786-1.751 1.751-1.751h.185c.437 0 .855.162 1.178.455l8.395 7.632c1.338 1.216 2.991 1.995 4.781 2.25l2.425.346-.752 8.694 3.037 3.037 3.037-3.036-.752-8.694 2.425-.346c1.79-.256 3.443-1.035 4.781-2.251zm-8.528 10.535-.963.964-.963-.964.66-7.637c.101.004.201.015.303.015s.202-.011.303-.015zm-.963-19.622c2.757 0 5 2.243 5 5 0 2.299-1.568 4.221-3.685 4.802l-1.315.188-1.315-.188c-2.117-.581-3.685-2.503-3.685-4.802 0-2.757 2.243-5 5-5zm-13.528 33.824 1.969.352-.357 2-1.969-.352zm-.715 4 1.969.352-1.786 10-1.969-.352zm31.204 15.223c.026.146.039.295.039.441 0 1.385-1.127 2.512-2.512 2.512h-2.488v-2h2.488c.283 0 .512-.229.512-.512l-2.012-11.312 1.969-.352zm-9.961-14.642c0-2.429-1.976-4.405-4.405-4.405h-.184c-.869 0-1.7.25-2.411.716-.71-.466-1.542-.716-2.411-.716h-.184c-2.429 0-4.405 1.976-4.405 4.405 0 1.311.578 2.544 1.585 3.384l1.662 1.385c-1.865.512-3.247 2.206-3.247 4.231 0 1.311.578 2.544 1.585 3.384l5.415 4.513 5.415-4.513c1.007-.839 1.585-2.073 1.585-3.384 0-2.026-1.382-3.719-3.247-4.231l1.662-1.385c1.007-.839 1.585-2.073 1.585-3.384zm-4.589 6.595h.184c1.326 0 2.405 1.079 2.405 2.405 0 .716-.315 1.389-.865 1.848l-4.135 3.445-4.135-3.445c-.55-.459-.865-1.132-.865-1.848 0-1.326 1.079-2.405 2.405-2.405h.184c.48 0 .938.14 1.329.4l.41.341.675.67.672-.672.408-.34c.39-.259.848-.399 1.328-.399zm1.724-4.747-4.135 3.445-4.135-3.445c-.55-.459-.865-1.132-.865-1.848 0-1.326 1.079-2.405 2.405-2.405h.184c.643 0 1.247.25 1.701.705l.712.707.707-.707c.455-.455 1.059-.705 1.702-.705h.184c1.326 0 2.405 1.079 2.405 2.405 0 .716-.315 1.389-.865 1.848zm3.865 13.747h2v2h-2zm11.418-24.366 6.928-4 1 1.732-6.928 4zm-45.765-4 6.928 4-1 1.732-6.928-4zm3.347 17.366h-8v-2h8zm-.5 9.634 1 1.732-6.928 4-1-1.732zm52.928 5.732-6.928-4 1-1.732 6.928 4zm-6.428-17.366h8v2h-8z" fill="url(#SVGID_1_)"/></svg>