<?xml version="1.0" standalone="no"?>
<!DOCTYPE svg PUBLIC "-//W3C//DTD SVG 20010904//EN"
 "http://www.w3.org/TR/2001/REC-SVG-20010904/DTD/svg10.dtd">
<svg version="1.0" xmlns="http://www.w3.org/2000/svg"
 width="250.000000pt" height="250.000000pt" viewBox="0 0 250.000000 250.000000"
 preserveAspectRatio="xMidYMid meet">
<metadata>
Created by potrace 1.14, written by Peter Selinger 2001-2017
</metadata>
<g transform="translate(0.000000,250.000000) scale(0.100000,-0.100000)"
fill="#000000" stroke="none">
<path d="M1470 1742 c-29 -3 -174 -31 -241 -47 -123 -28 -283 -94 -474 -194
-16 -9 -70 -45 -119 -80 -49 -35 -95 -65 -102 -68 -7 -2 -24 13 -38 35 -46 73
-134 122 -220 122 l-41 0 35 -21 c77 -46 143 -134 181 -241 l25 -67 34 33 c63
59 193 158 297 227 210 138 462 237 678 265 65 8 435 11 503 4 29 -3 57 -3 63
1 6 3 -27 10 -73 14 -45 5 -94 10 -108 11 -39 6 -361 10 -400 6z"/>
<path d="M1475 1690 c-16 -4 -64 -15 -105 -25 -188 -43 -384 -128 -565 -247
-121 -79 -215 -156 -360 -297 -180 -174 -267 -239 -370 -276 -33 -12 41 -28
100 -22 88 9 159 51 272 161 34 33 64 58 66 55 2 -2 16 -27 31 -54 38 -71 81
-114 143 -142 56 -26 185 -45 149 -22 -105 66 -190 172 -226 282 l-12 39 78
77 c93 91 144 132 239 193 168 109 365 188 579 234 122 26 735 24 778 -2 4 -3
8 -1 8 4 0 5 -24 13 -52 17 -29 4 -64 9 -78 12 -131 21 -607 30 -675 13z"/>
<path d="M2290 1650 c0 -8 80 -23 86 -17 2 2 -16 8 -41 14 -25 6 -45 7 -45 3z"/>
<path d="M1262 1473 c-116 -113 -172 -197 -187 -276 -5 -26 -19 -48 -47 -72
-104 -89 -208 -97 -208 -16 0 13 17 25 58 40 94 34 171 106 155 146 -14 38
-106 33 -173 -10 -132 -85 -157 -266 -42 -299 27 -7 43 -4 96 23 36 17 80 47
99 66 19 19 37 35 40 35 2 0 7 -18 10 -41 11 -84 67 -102 153 -48 27 18 55 40
62 50 16 23 32 25 32 3 0 -30 34 -74 67 -85 53 -17 114 9 202 84 l35 30 10
-43 c20 -81 35 -77 140 35 52 55 97 97 100 94 4 -3 -9 -32 -29 -64 -19 -33
-35 -71 -35 -85 0 -27 27 -60 48 -60 18 0 68 33 115 76 23 21 51 46 61 54 18
14 19 13 12 -15 -16 -59 -14 -87 6 -107 21 -21 46 -19 105 9 39 18 150 119
141 128 -3 3 -33 -12 -67 -35 -73 -50 -104 -51 -109 -3 -2 19 7 50 22 80 37
70 51 84 88 90 45 6 72 25 91 65 16 33 16 33 -9 36 -24 3 -24 3 -7 33 15 25
16 31 3 39 -14 9 -70 -13 -70 -28 -1 -20 -31 -42 -66 -48 -50 -8 -58 -13 -89
-54 l-26 -35 35 -3 c20 -2 36 -9 36 -15 -1 -34 -164 -167 -205 -167 -42 0 -27
44 40 120 35 39 45 58 41 74 -3 11 -6 24 -6 29 -1 37 -140 -51 -237 -150 -22
-24 -46 -43 -52 -43 -20 0 -11 25 22 60 52 56 77 92 71 101 -3 5 -18 9 -33 9
-30 0 -90 -56 -112 -103 -11 -24 -78 -78 -125 -101 -68 -34 -134 -24 -134 21
0 19 13 29 73 58 135 64 185 142 103 163 -80 22 -214 -67 -246 -163 -7 -21
-27 -41 -63 -63 -84 -51 -130 -39 -130 33 0 26 8 42 34 67 62 59 142 162 165
213 24 51 32 119 15 129 -5 4 -41 -24 -79 -61z m-6 -110 c-35 -58 -88 -123
-100 -123 -16 0 61 134 100 174 41 40 41 15 0 -51z m-293 -89 c18 -18 -86
-109 -117 -102 -14 3 -13 7 6 34 34 48 94 85 111 68z m567 -6 c-1 -22 -45 -65
-89 -87 -47 -25 -51 -18 -16 29 39 53 105 90 105 58z"/>
<path d="M237 1288 c-48 -22 -111 -79 -133 -121 -35 -66 -25 -148 21 -187 20
-17 70 -15 116 4 48 20 139 93 139 111 0 20 -1 20 -60 -20 -29 -19 -58 -35
-66 -36 -69 -6 -94 5 -94 40 0 25 7 31 66 56 139 59 194 164 90 170 -20 1 -56
-7 -79 -17z m63 -42 c0 -27 -110 -109 -126 -93 -10 10 36 67 70 88 37 22 56
24 56 5z"/>
<path d="M988 913 c7 -3 16 -2 19 1 4 3 -2 6 -13 5 -11 0 -14 -3 -6 -6z"/>
<path d="M1028 913 c7 -3 16 -2 19 1 4 3 -2 6 -13 5 -11 0 -14 -3 -6 -6z"/>
<path d="M1068 913 c7 -3 16 -2 19 1 4 3 -2 6 -13 5 -11 0 -14 -3 -6 -6z"/>
<path d="M1108 913 c7 -3 16 -2 19 1 4 3 -2 6 -13 5 -11 0 -14 -3 -6 -6z"/>
<path d="M1148 913 c7 -3 16 -2 19 1 4 3 -2 6 -13 5 -11 0 -14 -3 -6 -6z"/>
<path d="M1188 913 c7 -3 16 -2 19 1 4 3 -2 6 -13 5 -11 0 -14 -3 -6 -6z"/>
<path d="M1228 913 c7 -3 16 -2 19 1 4 3 -2 6 -13 5 -11 0 -14 -3 -6 -6z"/>
<path d="M1268 913 c7 -3 16 -2 19 1 4 3 -2 6 -13 5 -11 0 -14 -3 -6 -6z"/>
<path d="M1308 913 c7 -3 16 -2 19 1 4 3 -2 6 -13 5 -11 0 -14 -3 -6 -6z"/>
<path d="M1348 913 c7 -3 16 -2 19 1 4 3 -2 6 -13 5 -11 0 -14 -3 -6 -6z"/>
<path d="M1388 913 c7 -3 16 -2 19 1 4 3 -2 6 -13 5 -11 0 -14 -3 -6 -6z"/>
<path d="M1428 913 c7 -3 16 -2 19 1 4 3 -2 6 -13 5 -11 0 -14 -3 -6 -6z"/>
<path d="M1468 913 c7 -3 16 -2 19 1 4 3 -2 6 -13 5 -11 0 -14 -3 -6 -6z"/>
<path d="M1508 913 c7 -3 16 -2 19 1 4 3 -2 6 -13 5 -11 0 -14 -3 -6 -6z"/>
<path d="M1548 913 c7 -3 16 -2 19 1 4 3 -2 6 -13 5 -11 0 -14 -3 -6 -6z"/>
<path d="M2098 913 c7 -3 16 -2 19 1 4 3 -2 6 -13 5 -11 0 -14 -3 -6 -6z"/>
<path d="M1709 878 c-5 -10 -4 -68 1 -68 4 0 7 16 7 35 0 30 -3 42 -8 33z"/>
<path d="M1983 838 c0 -39 0 -40 5 -8 l4 35 13 -35 12 -35 13 28 c15 31 31 36
23 7 -3 -11 -1 -20 3 -20 5 0 9 16 9 35 0 41 -11 45 -27 10 -14 -31 -26 -32
-30 -3 -6 40 -24 30 -25 -14z"/>
<path d="M1763 855 c-10 -8 -13 -15 -6 -15 6 0 15 5 18 10 9 15 25 2 25 -21 0
-10 -7 -19 -15 -19 -8 0 -15 5 -15 10 0 6 -5 10 -12 10 -8 0 -6 -6 4 -16 22
-22 48 -11 48 20 0 29 -22 39 -47 21z"/>
<path d="M2155 856 c-18 -13 -13 -56 6 -56 5 0 4 9 -3 20 -11 17 -10 22 2 30
20 13 29 4 28 -30 -1 -27 -9 -35 -31 -31 -5 1 -6 -3 -2 -9 13 -22 45 9 45 44
0 38 -19 51 -45 32z"/>
<path d="M2269 856 c9 -11 7 -15 -11 -19 -29 -8 -34 -6 -30 13 3 13 2 13 -7 0
-14 -20 -14 -37 2 -37 6 0 19 -3 27 -5 8 -3 12 -3 8 -1 -5 3 -8 9 -8 14 0 14
28 11 33 -3 3 -7 6 -1 6 13 1 16 -6 29 -15 33 -14 5 -15 4 -5 -8z"/>
<path d="M1664 845 c-8 -20 2 -45 18 -44 10 0 10 2 1 6 -7 2 -13 13 -13 23 0
10 6 21 13 23 9 4 9 6 -1 6 -7 1 -15 -6 -18 -14z"/>
<path d="M1854 845 c-4 -9 0 -23 8 -31 20 -20 50 -7 46 20 -4 26 -45 35 -54
11z m44 -12 c-2 -10 -10 -18 -18 -18 -8 0 -16 8 -18 18 -2 12 3 17 18 17 15 0
20 -5 18 -17z"/>
<path d="M2101 841 c-23 -18 -22 -41 2 -41 7 0 6 4 -3 10 -13 9 -13 11 0 20
11 7 17 4 22 -13 5 -18 6 -16 7 11 1 37 3 37 -28 13z"/>
<path d="M2308 853 c-8 -15 -10 -78 -3 -71 4 4 8 23 10 42 2 35 0 43 -7 29z"/>
</g>
</svg>
